<svg width="40" height="40" viewBox="0 0 40 40" fill="none" xmlns="http://www.w3.org/2000/svg">
<circle opacity="0.1" cx="20" cy="20" r="20" fill="#CF5C36"/>
<path d="M23.3333 14.3334C23.3333 14.245 23.2982 14.1602 23.2357 14.0977C23.1732 14.0352 23.0884 14 23 14H21.3333C20.4941 13.9582 19.6724 14.2503 19.0478 14.8124C18.4232 15.3745 18.0465 16.161 18 17V18.8H16.3333C16.2449 18.8 16.1601 18.8352 16.0976 18.8977C16.0351 18.9602 16 19.045 16 19.1334V20.8667C16 20.9551 16.0351 21.0399 16.0976 21.1024C16.1601 21.1649 16.2449 21.2 16.3333 21.2H18V25.6667C18 25.7551 18.0351 25.8399 18.0976 25.9024C18.1601 25.9649 18.2449 26 18.3333 26H20.3333C20.4217 26 20.5065 25.9649 20.569 25.9024C20.6315 25.8399 20.6667 25.7551 20.6667 25.6667V21.2H22.4133C22.4875 21.2011 22.5598 21.1774 22.619 21.1328C22.6782 21.0881 22.7207 21.025 22.74 20.9534L23.22 19.22C23.2333 19.1708 23.235 19.1191 23.2252 19.0691C23.2154 19.019 23.1942 18.9719 23.1633 18.9313C23.1324 18.8908 23.0926 18.8578 23.0469 18.8351C23.0013 18.8123 22.951 18.8003 22.9 18.8H20.6667V17C20.6832 16.835 20.7607 16.6821 20.884 16.5712C21.0073 16.4602 21.1675 16.3992 21.3333 16.4H23C23.0884 16.4 23.1732 16.3649 23.2357 16.3024C23.2982 16.2399 23.3333 16.1551 23.3333 16.0667V14.3334Z" fill="#CF5C36"/>
</svg>
