<svg width="40" height="40" viewBox="0 0 40 40" fill="none" xmlns="http://www.w3.org/2000/svg">
<circle opacity="0.1" cx="20" cy="20" r="20" fill="#CF5C36"/>
<path fill-rule="evenodd" clip-rule="evenodd" d="M18.2857 17.979H20.7617V19.2123C21.1183 18.503 22.033 17.8657 23.407 17.8657C26.041 17.8657 26.6663 19.2777 26.6663 21.8683V26.6663H23.9997V22.4583C23.9997 20.983 23.643 20.151 22.735 20.151C21.4757 20.151 20.9523 21.0477 20.9523 22.4577V26.6663H18.2857V17.979ZM13.713 26.553H16.3797V17.8657H13.713V26.553ZM16.7617 15.033C16.7618 15.2565 16.7174 15.4778 16.6313 15.6841C16.5451 15.8903 16.4188 16.0773 16.2597 16.2343C15.9373 16.5548 15.5009 16.7341 15.0463 16.733C14.5926 16.7327 14.1572 16.5538 13.8343 16.235C13.6758 16.0775 13.5499 15.8902 13.4639 15.684C13.3779 15.4777 13.3334 15.2565 13.333 15.033C13.333 14.5817 13.513 14.1497 13.835 13.831C14.1576 13.5118 14.5932 13.3328 15.047 13.333C15.5017 13.333 15.9377 13.5123 16.2597 13.831C16.581 14.1497 16.7617 14.5817 16.7617 15.033Z" fill="#CF5C36"/>
</svg>
